<?xml version="1.0" standalone="no"?>
<!DOCTYPE svg PUBLIC "-//W3C//DTD SVG 20010904//EN"
 "http://www.w3.org/TR/2001/REC-SVG-20010904/DTD/svg10.dtd">
<svg version="1.0" xmlns="http://www.w3.org/2000/svg"
 width="57.000000pt" height="57.000000pt" viewBox="0 0 57.000000 57.000000"
 preserveAspectRatio="xMidYMid meet">

<g transform="translate(0.000000,57.000000) scale(0.100000,-0.100000)"
fill="#000000" stroke="none">
<path d="M142 328 c-15 -15 -15 -41 0 -56 9 -9 9 -15 0 -24 -28 -28 -1 -75 37
-63 11 3 23 15 26 26 6 17 16 19 85 19 69 0 79 -2 85 -19 3 -11 15 -23 26 -26
38 -12 65 35 37 63 -9 9 -9 15 0 24 28 28 1 75 -37 63 -11 -3 -23 -15 -26 -26
-6 -17 -16 -19 -86 -19 -43 0 -79 4 -79 9 0 14 -29 41 -44 41 -6 0 -17 -5 -24
-12z"/>
</g>
</svg>
