<?xml version="1.0" standalone="no"?>
<!DOCTYPE svg PUBLIC "-//W3C//DTD SVG 20010904//EN"
 "http://www.w3.org/TR/2001/REC-SVG-20010904/DTD/svg10.dtd">
<svg version="1.0" xmlns="http://www.w3.org/2000/svg"
 width="363.000000pt" height="536.000000pt" viewBox="0 0 363.000000 536.000000"
 preserveAspectRatio="xMidYMid meet">

<g transform="translate(0.000000,536.000000) scale(0.100000,-0.100000)"
fill="#000000" stroke="none">
<path d="M2840 5220 l0 -70 -70 0 -70 0 0 -70 0 -70 -70 0 -70 0 0 -140 0
-140 -70 0 -70 0 0 -70 0 -70 -70 0 -70 0 0 -140 0 -140 -425 0 -425 0 0 -70
0 -70 -70 0 -70 0 0 70 0 70 -70 0 -70 0 0 70 0 70 -139 0 c-158 0 -148 6
-143 -86 l4 -54 69 0 69 0 0 -70 0 -70 70 0 70 0 0 -70 0 -70 140 0 140 0 0
70 0 70 425 0 425 0 0 70 0 70 70 0 70 0 0 70 0 70 70 0 70 0 0 70 0 70 70 0
70 0 0 140 0 140 70 0 70 0 0 70 0 70 70 0 70 0 0 70 0 70 140 0 140 0 0 -210
0 -210 70 0 70 0 0 -350 0 -350 -70 0 -70 0 0 -425 0 -425 70 0 70 0 0 -210 0
-210 -70 0 -70 0 0 -70 0 -70 -70 0 -70 0 0 -70 0 -70 70 0 70 0 0 -565 0
-565 -70 0 -70 0 0 -70 0 -70 -70 0 -70 0 0 -70 0 -70 -70 0 -70 0 0 -70 0
-70 -70 0 -70 0 0 -70 0 -70 70 0 70 0 0 70 0 70 70 0 70 0 0 -210 0 -210 70
0 70 0 0 -75 0 -75 -210 0 -210 0 -2 213 -3 212 -67 3 -67 3 -3 -73 -3 -73
-280 0 -280 0 -3 143 -3 143 -67 -3 -67 -3 -3 -277 -2 -277 72 -3 73 -3 0 -70
0 -70 -212 -3 -213 -2 0 70 0 70 -70 0 -70 0 0 215 0 215 -70 0 -70 0 0 140 0
140 -70 0 -70 0 0 -210 0 -210 70 0 70 0 0 -145 0 -145 -140 0 -140 0 0 -70 0
-69 207 0 208 0 3 -71 3 -70 349 0 350 0 2 212 3 213 213 3 212 2 0 -145 0
-145 336 0 c184 1 342 4 350 7 19 7 21 412 2 415 -7 1 -38 2 -68 3 l-55 1 -3
72 -3 72 71 0 70 0 0 210 0 210 70 0 70 0 0 705 0 705 70 0 70 0 0 350 0 350
-70 0 -70 0 0 285 0 285 70 0 70 0 0 420 0 420 -70 0 -70 0 0 210 0 210 -70 0
-70 0 0 70 0 70 -210 0 -210 0 0 -70z m280 -4220 l0 -70 -70 0 -70 0 0 70 0
70 70 0 70 0 0 -70z"/>
<path d="M300 4800 l0 -70 -70 0 -70 0 0 -70 0 -70 -70 0 -70 0 0 -350 0 -350
70 0 70 0 2 -212 3 -213 65 0 65 0 5 -70 5 -70 71 -5 71 -5 -1 -65 0 -65 72
-3 72 -3 0 -69 0 -70 70 0 70 0 0 -350 0 -350 70 0 70 0 0 -74 0 -74 -70 1
-70 2 0 -72 0 -73 -70 0 -70 0 0 -70 0 -70 -70 0 -70 0 0 -210 0 -210 -75 0
-75 0 0 -70 0 -70 -70 0 -70 0 0 -70 0 -70 -70 0 -70 0 0 -350 0 -350 70 0 69
0 3 -143 3 -142 349 0 349 0 1 70 1 70 73 3 72 3 0 64 0 64 -72 3 c-49 2 -73
7 -74 16 -1 6 -2 39 -3 72 l-1 60 -65 0 -64 0 -3 -143 -3 -142 -212 -3 -213
-2 0 145 0 145 -70 0 -70 0 0 210 0 210 70 0 70 0 0 70 0 69 72 3 72 3 0 67
-1 68 73 0 74 0 0 280 0 279 68 3 67 3 3 67 3 67 67 3 67 3 5 70 5 70 65 0 65
0 3 -67 3 -68 70 0 70 0 -3 138 -3 137 -65 0 -65 0 -5 70 -5 70 -67 3 -68 3 0
279 0 280 -70 0 -70 0 0 140 0 140 -70 0 -69 0 -3 71 -3 72 -70 1 -70 1 -1 70
-2 70 -71 3 -71 3 0 209 0 210 -70 0 -70 0 0 280 0 280 70 0 70 0 0 70 0 70
140 0 140 0 0 -70 0 -70 69 0 c46 0 70 -4 74 -12 2 -7 3 -39 2 -71 l-1 -58 70
3 71 3 0 135 0 135 -142 3 -143 3 0 69 0 70 -140 0 -140 0 0 -70z"/>
<path d="M2700 3390 l0 -70 -70 0 -70 0 0 -70 0 -70 140 0 140 0 0 140 0 140
-70 0 -70 0 0 -70z"/>
<path d="M1710 3250 l0 -70 -70 0 -70 0 0 -70 0 -70 140 0 140 0 0 140 0 140
-70 0 -70 0 0 -70z"/>
<path d="M1990 2970 l0 -70 75 0 75 0 0 -70 0 -70 70 0 70 0 0 -70 0 -70 -70
0 -70 0 0 -70 0 -69 -142 -3 -143 -3 -3 -67 -3 -68 146 0 145 0 0 -70 0 -70
210 0 210 0 0 70 0 70 140 0 140 0 0 70 0 70 70 0 70 0 0 140 0 140 -70 0 -70
0 0 -140 0 -140 -140 0 -139 0 -3 68 -3 67 -72 3 -73 3 0 139 0 140 75 0 75 0
0 70 0 70 -285 0 -285 0 0 -70z m430 -560 l0 -70 -75 0 -75 0 0 63 c0 35 3 67
7 70 3 4 37 7 75 7 l68 0 0 -70z"/>
<path d="M1710 2620 l0 -140 70 0 70 0 0 140 0 140 -70 0 -70 0 0 -140z"/>
<path d="M1570 1420 l0 -70 70 0 70 0 0 -70 0 -70 70 0 70 0 0 -70 0 -70 70 0
70 0 0 70 0 70 -70 0 -70 0 0 70 0 70 -70 0 -70 0 0 70 0 70 -70 0 -70 0 0
-70z"/>
<path d="M1998 1063 c-2 -5 -2 -36 0 -70 l4 -63 64 0 64 0 0 70 0 70 -64 0
c-36 0 -66 -3 -68 -7z"/>
</g>
</svg>
