<svg width="100%" height="100%" id="svg" viewBox="0 0 1440 690" xmlns="http://www.w3.org/2000/svg" class="transition duration-300 ease-in-out delay-150"><defs><linearGradient id="gradient" x1="0%" y1="50%" x2="100%" y2="50%"><stop offset="5%" stop-color="#0693e3"></stop><stop offset="95%" stop-color="#8ED1FC"></stop></linearGradient></defs><path d="M 0,700 C 0,700 0,350 0,350 C 53.99244245963587,286.09000343524565 107.98488491927174,222.18000687049124 180,257 C 252.01511508072826,291.81999312950876 342.0529027825489,425.3699759532806 416,446 C 489.9470972174511,466.6300240467194 547.8035039505326,374.3400893163861 607,374 C 666.1964960494674,373.6599106836139 726.7330814153212,465.2696667811749 791,467 C 855.2669185846788,468.7303332188251 923.2641703881827,380.5812435589144 1005,360 C 1086.7358296118173,339.4187564410856 1182.2102370319476,386.4053589831673 1257,396 C 1331.7897629680524,405.5946410168327 1385.8948814840262,377.79732050841636 1440,350 C 1440,350 1440,700 1440,700 Z" stroke="none" stroke-width="0" fill="url(#gradient)" fill-opacity="1" class="transition-all duration-300 ease-in-out delay-150 path-0"></path></svg>